<?xml version="1.0" standalone="no"?>
<!DOCTYPE svg PUBLIC "-//W3C//DTD SVG 20010904//EN"
 "http://www.w3.org/TR/2001/REC-SVG-20010904/DTD/svg10.dtd">
<svg version="1.0" xmlns="http://www.w3.org/2000/svg"
 width="1800.000000pt" height="1800.000000pt" viewBox="0 0 1800.000000 1800.000000"
 preserveAspectRatio="xMidYMid meet">
<metadata>
Created by potrace 1.11, written by Peter Selinger 2001-2013
</metadata>
<g transform="translate(0.000000,1800.000000) scale(0.100000,-0.100000)"
fill="#000000" stroke="none">
<path d="M47 12151 c26 -27 131 -136 233 -242 102 -106 213 -222 248 -258 134
-139 401 -417 502 -521 58 -60 179 -186 270 -281 91 -94 209 -217 263 -273 54
-55 166 -172 250 -260 84 -87 190 -198 237 -246 87 -90 384 -399 529 -550 151
-157 456 -473 478 -496 l22 -22 -20 -24 c-12 -12 -116 -122 -232 -242 -117
-120 -232 -240 -257 -266 -25 -26 -139 -145 -255 -265 -115 -119 -235 -243
-265 -275 -30 -31 -130 -136 -222 -231 -92 -96 -217 -226 -278 -289 -61 -63
-187 -194 -279 -290 -93 -96 -200 -207 -238 -246 -109 -114 -432 -450 -503
-523 -36 -37 -157 -164 -270 -281 -113 -117 -218 -226 -233 -242 l-28 -28 989
0 988 0 511 518 c281 284 599 607 708 717 507 515 861 872 871 878 11 6 42
-24 541 -530 147 -150 459 -467 693 -703 234 -237 525 -532 646 -656 l222
-224 1510 0 1510 0 1 998 c0 548 0 1021 1 1051 l0 53 196 -198 c1217 -1234
1441 -1460 1509 -1520 159 -140 448 -287 660 -335 28 -6 59 -13 70 -15 11 -3
40 -7 63 -9 24 -3 49 -8 55 -12 7 -5 1417 -8 3135 -9 l3122 0 0 592 0 592
-1862 1 c-1025 0 -1880 0 -1900 0 l-37 1 -1 433 c-1 237 -1 448 0 467 1 19 2
42 2 50 -1 8 -1 56 -1 105 0 50 0 97 0 105 -1 8 -1 35 0 60 1 25 1 52 1 60 -4
67 0 255 4 259 3 3 713 6 1577 6 l1572 0 2 33 c6 73 5 130 -1 141 -4 6 -2 11
4 11 6 0 8 5 5 11 -7 10 -7 29 -4 161 1 25 -2 51 -5 57 -4 5 -2 12 3 16 6 3 7
15 2 28 -4 12 -4 36 -1 52 3 17 3 40 -1 52 -5 13 -4 25 2 28 5 4 6 11 3 17 -4
6 -6 30 -5 54 3 125 3 142 -3 153 -4 6 -2 11 4 11 6 0 8 5 5 11 -4 6 -7 33 -6
60 1 27 1 71 2 98 1 27 -2 54 -5 60 -4 5 -2 12 4 16 6 4 7 12 3 18 -4 6 -6 28
-4 48 3 40 -4 49 -41 50 -21 1 -839 1 -883 0 -11 0 -74 0 -140 0 -138 1 -118
1 -220 0 -44 0 -89 0 -100 0 -11 0 -78 0 -150 0 -71 0 -134 1 -140 0 -5 0 -50
0 -100 0 -92 0 -115 0 -137 -2 -17 -1 -126 0 -158 2 -14 0 -32 1 -40 0 -8 0
-62 0 -120 0 -58 0 -114 0 -125 0 -125 -6 -282 -4 -278 3 3 4 -5 5 -18 1 -13
-5 -37 -7 -54 -6 -16 1 -37 2 -45 2 -8 0 -62 0 -120 0 -58 0 -114 0 -125 0
-11 -1 -52 -2 -92 -4 l-72 -2 2 650 2 650 1818 0 1818 0 -1 30 c-1 17 -1 35 0
40 4 25 2 94 -4 103 -3 6 -2 13 3 16 5 4 6 19 3 34 -6 25 -7 51 -2 77 4 26 2
104 -4 114 -4 6 -2 11 4 11 6 0 8 5 5 11 -7 10 -7 32 -4 155 1 29 -1 56 -5 62
-3 6 -2 13 3 16 5 4 6 19 3 34 -6 25 -7 51 -2 77 4 26 2 104 -4 114 -4 6 -2
11 4 11 6 0 8 5 5 11 -4 6 -7 32 -6 57 0 26 1 72 1 102 -1 30 0 67 0 83 l0 27
-3032 0 c-1782 -1 -3049 -4 -3073 -10 -22 -5 -62 -12 -90 -16 -27 -3 -53 -8
-56 -10 -3 -2 -20 -6 -38 -9 -18 -3 -51 -12 -74 -20 -23 -8 -50 -15 -59 -15
-10 0 -18 -4 -18 -8 0 -5 -6 -9 -13 -9 -19 0 -131 -46 -135 -55 -2 -5 -9 -8
-16 -8 -16 0 -154 -75 -177 -95 -8 -8 -20 -15 -25 -15 -6 0 -19 -8 -30 -17
-10 -10 -46 -38 -78 -63 -33 -25 -164 -150 -290 -277 -227 -229 -1099 -1111
-1335 -1351 l-121 -122 0 1050 0 1050 -1510 0 -1510 0 -214 -217 c-118 -120
-338 -342 -488 -494 -150 -152 -491 -498 -758 -769 -636 -644 -605 -613 -623
-628 -13 -12 -30 1 -119 92 -57 57 -258 263 -448 456 -190 193 -452 460 -583
593 -131 133 -399 405 -595 605 l-356 362 -989 0 -989 0 49 -49z m7288 -3162
l0 -2360 -95 99 c-52 54 -183 190 -290 302 -107 112 -224 233 -260 270 -89 92
-435 452 -500 520 -29 30 -143 149 -254 264 -110 115 -250 261 -311 324 -60
63 -148 154 -195 203 -216 222 -365 381 -365 389 0 5 81 93 180 196 99 103
205 213 235 245 96 100 453 469 515 534 33 34 150 155 260 270 110 114 223
231 250 260 28 28 147 152 265 275 118 123 259 269 313 324 54 56 130 135 170
178 40 42 74 74 77 71 3 -2 5 -1067 5 -2364z m5093 10 l0 -2360 -21 18 c-18
16 -102 102 -247 253 -30 32 -138 144 -240 250 -215 223 -304 316 -513 533
-171 177 -256 266 -538 558 -108 112 -227 236 -264 274 -52 55 -374 390 -444
462 -11 12 -3 25 57 86 38 40 103 106 143 148 90 93 359 373 489 508 52 54
169 176 260 270 91 95 212 221 270 281 58 59 188 195 290 301 102 105 222 230
268 277 45 46 82 85 82 87 0 1 66 70 148 153 81 83 171 176 201 207 29 30 55
55 56 55 2 0 3 -1062 3 -2361z"/>
</g>
</svg>
