<?xml version="1.0" encoding="utf-8"?>
<!-- Generator: Adobe Illustrator 21.0.2, SVG Export Plug-In . SVG Version: 6.00 Build 0)  -->
<svg version="1.1" id="Calque_1" xmlns="http://www.w3.org/2000/svg" xmlns:xlink="http://www.w3.org/1999/xlink" x="0px" y="0px"
	 viewBox="0 0 200 66.1" style="enable-background:new 0 0 200 66.1;" xml:space="preserve">
<style type="text/css">
	.st0{fill:#6A205F;}
</style>
<g>
	<g>
		<path class="st0" d="M96.9,30.3H78.4c1.2-4.3,4.9-7,9.1-7C92.3,23.3,95.6,25.7,96.9,30.3 M78.1,36.6h27.3c0-0.6,0.1-1.1,0.1-1.7
			c0-4.5-1-8.1-3.2-11.2c-3.6-4.9-8.9-7.7-14.8-7.7c-4.7,0-9.2,2-12.7,5.7c-3.2,3.4-4.8,7.6-4.8,12.4c0,4.6,1.8,9.2,5.1,12.6
			c3.4,3.5,7.8,5.3,12.8,5.3c7.5,0,13.6-4.2,16.5-11.7h-8.6c-1.7,2.7-4.6,4.3-8.1,4.3C82.2,44.6,78.6,41.5,78.1,36.6"/>
		<path class="st0" d="M117.9,34.3c0-5.8,4.3-10.2,9.8-10.2c5.5,0,9.9,4.6,9.9,10.1c0,5.7-4.3,10-10.3,10
			C122.3,44.2,117.9,40,117.9,34.3 M117.6,19.8V6h-7.8v45.2h7.8v-2.8c3.2,2.5,6.6,3.6,10.6,3.6c4.3,0,8.2-1.4,11.2-4
			c4.1-3.5,6.4-8.5,6.4-14c0-5-2-9.8-5.8-13.3c-3.2-3-7.3-4.5-11.8-4.5C124,16.2,120.7,17.3,117.6,19.8"/>
		<path class="st0" d="M151.3,17.1h7.7v34.1h-7.7V17.1z M151.3,6h7.7v7.6h-7.7V6z"/>
		<path class="st0" d="M172.1,33.8c0-5.5,4.4-9.8,9.7-9.8c5,0,9.6,4.4,9.6,10.1c0,5.3-4.5,9.7-9.5,9.7
			C176.6,43.9,172.1,39.7,172.1,33.8 M192.4,51.2h7.6V17.1h-7.7v4.1c-2.3-3.3-5.9-4.9-10.8-4.9c-5.1,0-9.2,1.6-12.6,5.2
			c-3.2,3.3-4.9,7.7-4.9,12.5c0,10.1,7.6,18,17.7,18c5.3,0,8.7-1.5,10.6-5L192.4,51.2z"/>
	</g>
	<polygon class="st0" points="0.3,66.1 21.2,66.1 43.7,43.7 66.1,66.1 87.1,66.1 54.2,33.2 87.3,0 66.4,0 43.7,22.7 21,0 0,0 
		33.2,33.2 	"/>
</g>
</svg>
